{"title":"Jogayya (Kannada 2011) SCAMrip (Full Movie)","uid":6867494,"size":682518553,"categoryP":"video","categoryS":"movies","magnet":"?xt=urn:btih:6477c7b80f953f9dd488bd5d38879ffef30a8ed9&amp;dn=Jogayya+%28Kannada+2011%29+SCAMrip+%28Full+Movie%29&amp;tr=udp%3A%2F%2Ftracker.openbittorrent.com%3A80&amp;tr=udp%3A%2F%2Fopen.demonii.com%3A1337&amp;tr=udp%3A%2F%2Ftracker.coppersurfer.tk%3A6969&amp;tr=udp%3A%2F%2Fexodus.desync.com%3A6969","seeders":0,"leechers":1,"uploader":"rcbcsk","files":-1,"time":1323161060,"description":"Screen Shots\n &lt;a href=&quot;\nhttp://www.postimg.com/image/54000/photo-53932.jpg&quot; rel=&quot;nofollow&quot; target=&quot;_NEW&quot;&gt;\nhttp://www.postimg.com/image/54000/photo-53932.jpg&lt;/a&gt;\n &lt;a href=&quot;\nhttp://www.postimg.com/image/54000/photo-53933.jpg&quot; rel=&quot;nofollow&quot; target=&quot;_NEW&quot;&gt;\nhttp://www.postimg.com/image/54000/photo-53933.jpg&lt;/a&gt;\n &lt;a href=&quot;\nhttp://www.postimg.com/image/54000/photo-53934.jpg&quot; rel=&quot;nofollow&quot; target=&quot;_NEW&quot;&gt;\nhttp://www.postimg.com/image/54000/photo-53934.jpg&lt;/a&gt;\n &lt;a href=&quot;\nhttp://www.postimg.com/image/54000/photo-53935.jpg&quot; rel=&quot;nofollow&quot; target=&quot;_NEW&quot;&gt;\nhttp://www.postimg.com/image/54000/photo-53935.jpg&lt;/a&gt;\n &lt;a href=&quot;\nhttp://www.postimg.com/image/54000/photo-53936.jpg&quot; rel=&quot;nofollow&quot; target=&quot;_NEW&quot;&gt;\nhttp://www.postimg.com/image/54000/photo-53936.jpg&lt;/a&gt;\n &lt;a href=&quot;\nhttp://www.postimg.com/image/54000/photo-53937.jpg&quot; rel=&quot;nofollow&quot; target=&quot;_NEW&quot;&gt;\nhttp://www.postimg.com/image/54000/photo-53937.jpg&lt;/a&gt;\n\n\n\nMedia INfo:-\n\nGeneral\n\nFormat : AVI\nFormat/Info : Audio Video Interleave\nFile size : 651 MiB\nDuration : 2h 19mn\nOverall bit rate : 652 Kbps\nWriting application : Lavf52.39.1\n\nVideo\nID : 0\nFormat : xvid\nCodec ID : xvid\nDuration : 2h 19mn\nBit rate : 574 Kbps\nWidth : 352 pixels\nHeight : 240 pixels\nDisplay aspect ratio : 3:2\nFrame rate : 29.970 fps\nStandard : NTSC\nBits/(Pixel*Frame) : 0.227\nStream size : 573 MiB (88%)\n\nAudio\nID : 1\nFormat : MPEG Audio\nFormat version : Version 1\nFormat profile : Layer 3\nMode : Joint stereo\nMode extension : MS Stereo\nCodec ID : 55\nCodec ID/Hint : MP3\nDuration : 2h 19mn\nBit rate mode : Constant\nBit rate : 64.0 Kbps\nChannel(s) : 2 channels\nSampling rate : 44.1 KHz\nCompression mode : Lossy\nStream size : 63.9 MiB (10%)\nAlignment : Aligned on interleaves\nInterleave, duration : 26 ms (0.78 video frame)\n","torrent":{"xt":"urn:btih:6477c7b80f953f9dd488bd5d38879ffef30a8ed9","amp;dn":"Jogayya+%28Kannada+2011%29+SCAMrip+%28Full+Movie%29","amp;tr":["udp%3A%2F%2Ftracker.openbittorrent.com%3A80","udp%3A%2F%2Fopen.demonii.com%3A1337","udp%3A%2F%2Ftracker.coppersurfer.tk%3A6969","udp%3A%2F%2Fexodus.desync.com%3A6969"],"infoHash":"6477c7b80f953f9dd488bd5d38879ffef30a8ed9","infoHashBuffer":{"type":"Buffer","data":[100,119,199,184,15,149,63,157,212,136,189,93,56,135,159,254,243,10,142,217]},"announce":[],"urlList":[]}}